<svg id="Layer_1" data-name="Layer 1" xmlns="http://www.w3.org/2000/svg" viewBox="0 0 276 265"><defs><style>.cls-1{fill:#070606;}.cls-2{fill:#767688;}.cls-3{fill:#5c5c76;}.cls-4{fill:#eeedee;}.cls-5{fill:#d7d7d9;}.cls-6{fill:#5ca2cb;}.cls-7{fill:#80cde2;}</style></defs><title>iconos-protexion</title><path class="cls-1" d="M22.6,218.79H1.7a1.7,1.7,0,1,0,0,3.39H22.6a1.7,1.7,0,1,0,0-3.39Z"/><path class="cls-1" d="M274.3,218.79H253.4a1.7,1.7,0,1,0,0,3.39h20.9a1.7,1.7,0,1,0,0-3.39Z"/><path class="cls-1" d="M236.7,218.79H39.3a1.7,1.7,0,1,0,0,3.39H236.7a1.7,1.7,0,1,0,0-3.39Z"/><path class="cls-1" d="M39.54,235.46H22a1.73,1.73,0,0,0,0,3.4H39.54a1.73,1.73,0,0,0,0-3.4Z"/><path class="cls-1" d="M250.28,235.46h-17.5a1.73,1.73,0,0,0,0,3.4h17.5a1.73,1.73,0,0,0,0-3.4Z"/><path class="cls-1" d="M218.8,235.46H53.52a1.73,1.73,0,0,0,0,3.4H218.8a1.73,1.73,0,0,0,0-3.4Z"/><path class="cls-2" d="M178.2,219.67H97.8A12.37,12.37,0,0,1,85.43,207.3v-167A12.37,12.37,0,0,1,97.8,28h80.4a12.37,12.37,0,0,1,12.37,12.37v167A12.37,12.37,0,0,1,178.2,219.67Z"/><path class="cls-3" d="M97.8,207.3v-167A12.37,12.37,0,0,1,110.17,28H97.8A12.37,12.37,0,0,0,85.43,40.33v167A12.37,12.37,0,0,0,97.8,219.67h12.37A12.37,12.37,0,0,1,97.8,207.3Z"/><rect class="cls-4" x="85.43" y="49.61" width="105.13" height="145.33"/><rect class="cls-5" x="85.43" y="49.61" width="12.37" height="145.33"/><path class="cls-1" d="M178.2,26.14H97.8A14.2,14.2,0,0,0,83.62,40.33v167A14.2,14.2,0,0,0,97.8,221.49h80.4a14.2,14.2,0,0,0,14.18-14.19V150.48a1.82,1.82,0,0,0-3.63,0v42.64H87.25V51.42h101.5v85.92a1.82,1.82,0,1,0,3.63,0v-97A14.2,14.2,0,0,0,178.2,26.14Zm10.55,170.61V207.3a10.56,10.56,0,0,1-10.55,10.55H97.8A10.56,10.56,0,0,1,87.25,207.3V196.75Zm0-149H87.25V40.33A10.56,10.56,0,0,1,97.8,29.78h80.4a10.56,10.56,0,0,1,10.55,10.55Z"/><path class="cls-1" d="M140.23,36.08h-4.46a2.09,2.09,0,0,0,0,4.18h4.46a2.09,2.09,0,1,0,0-4.18Z"/><path class="cls-1" d="M151.37,36.08h-2.23a2.09,2.09,0,1,0,0,4.18h2.23a2.09,2.09,0,1,0,0-4.18Z"/><path class="cls-1" d="M126.86,36.08h-2.23a2.09,2.09,0,1,0,0,4.18h2.23a2.09,2.09,0,0,0,0-4.18Z"/><path class="cls-1" d="M133.79,209.28h8.42a2,2,0,0,0,0-3.95h-8.42a2,2,0,0,0,0,3.95Z"/><polygon class="cls-6" points="110.17 93.42 110.17 125.31 110.17 140.32 128.95 158.24 138.32 162.08 138 83.67 125.74 89.67 110.17 93.42"/><polygon class="cls-7" points="167.25 92.82 167.25 124.71 167.25 139.72 148.48 157.64 139.11 161.48 139.42 83.06 151.68 89.07 167.25 92.82"/><path class="cls-1" d="M138.26,78.91c0,.69-5,10.92-31.75,10.92l.2,44.39c0,17.13,30.49,30.84,31.78,31.41.16-.14,31.63-14.12,31.63-31.41V89.83C143.61,89.79,138.61,79.71,138.26,78.91Zm-1.88,79.33-2.18-1.12c-7-3.58-23.28-13.24-23.28-25.49V96.73a2.53,2.53,0,0,1,2.52-2.53c11.78,0,17.67-2.59,20.53-4.77l2.41-1.83Zm4.06,0V87.62l2.41,1.83c2.86,2.17,8.75,4.75,20.54,4.75a2.54,2.54,0,0,1,2.53,2.53v34.9c0,12.25-16.29,21.91-23.29,25.49Z"/></svg>